<svg width="24" height="24" viewBox="0 0 24 24" xmlns="http://www.w3.org/2000/svg" xmlns:xlink="http://www.w3.org/1999/xlink">
    <defs>
        <path d="M17.25 7.905v1.19C17.25 10.145 14.898 11 12 11s-5.25-.856-5.25-1.905v-1.19C6.75 6.855 9.102 6 12 6s5.25.856 5.25 1.905zm0 2.012v2.678c0 1.05-2.352 1.905-5.25 1.905s-5.25-.856-5.25-1.905V9.917c1.128.863 3.192 1.265 5.25 1.265s4.122-.402 5.25-1.265zm0 3.5v2.678C17.25 17.145 14.898 18 12 18s-5.25-.856-5.25-1.905v-2.678c1.128.863 3.192 1.265 5.25 1.265s4.122-.402 5.25-1.265z" id="frg0hyju5a"/>
    </defs>
    <use stroke="#FFF" stroke-width="1.4" xlink:href="#frg0hyju5a" fill="none" fill-rule="evenodd"/>
</svg>
