<svg width="24" height="24" viewBox="0 0 24 24" xmlns="http://www.w3.org/2000/svg">
    <g fill="none" fill-rule="evenodd">
        <path d="M0 0h24v24H0z"/>
        <path d="M18.737 6C19.434 6 20 6.576 20 7.286v12.428c0 .71-.566 1.286-1.263 1.286H8.21a1.275 1.275 0 0 1-1.264-1.286V7.286c0-.71.566-1.286 1.264-1.286zm0 1.286H8.21v12.428h10.526V7.286zm-1.769 9.428v1.2H9.895v-1.2h7.073zm0-3.428v1.2H9.895v-1.2h7.073zM14.105 3v1.286H5.263v9H4v-9C4 3.576 4.566 3 5.263 3h8.842zm2.863 6.857v1.2H9.895v-1.2h7.073z" fill="#FFF"/>
    </g>
</svg>
