<svg width="18" height="16" viewBox="0 0 18 16" fill="none" xmlns="http://www.w3.org/2000/svg">
<path fill-rule="evenodd" clip-rule="evenodd" d="M17.438 15.875H16.313V14.187C16.313 13.256 15.557 12.5 14.625 12.5H12.375C11.443 12.5 10.687 13.256 10.687 14.188V15.875H9.56299V14.187C9.56299 13.4412 9.85925 12.726 10.3866 12.1986C10.914 11.6713 11.6292 11.375 12.375 11.375H14.625C14.9944 11.3749 15.3603 11.4475 15.7016 11.5889C16.043 11.7302 16.3531 11.9374 16.6144 12.1986C16.8756 12.4599 17.0828 12.77 17.2241 13.1114C17.3654 13.4527 17.4381 13.8186 17.438 14.188V15.875ZM13.5 5.75C13.7251 5.74452 13.9489 5.78412 14.1585 5.86646C14.368 5.9488 14.5589 6.07223 14.7201 6.22947C14.8812 6.38671 15.0092 6.57459 15.0966 6.78205C15.184 6.98952 15.2291 7.21237 15.2291 7.4375C15.2291 7.66263 15.184 7.88548 15.0966 8.09295C15.0092 8.30041 14.8812 8.48829 14.7201 8.64553C14.5589 8.80277 14.368 8.9262 14.1585 9.00854C13.9489 9.09088 13.7251 9.13048 13.5 9.125C13.0595 9.11428 12.6408 8.93178 12.333 8.61648C12.0253 8.30118 11.8531 7.87807 11.8531 7.4375C11.8531 6.99693 12.0253 6.57382 12.333 6.25852C12.6408 5.94322 13.0595 5.76072 13.5 5.75ZM13.5 4.625C12.7541 4.625 12.0387 4.92132 11.5113 5.44876C10.9838 5.97621 10.6875 6.69158 10.6875 7.4375C10.6875 8.18342 10.9838 8.89879 11.5113 9.42624C12.0387 9.95368 12.7541 10.25 13.5 10.25C14.2459 10.25 14.9613 9.95368 15.4887 9.42624C16.0162 8.89879 16.3125 8.18342 16.3125 7.4375C16.3125 6.69158 16.0162 5.97621 15.4887 5.44876C14.9613 4.92132 14.2459 4.625 13.5 4.625ZM8.43699 11.375H7.31299V9.687C7.31299 8.756 6.55599 8 5.62499 8H3.37499C2.44299 8 1.68699 8.756 1.68699 9.688V11.375H0.562988V9.687C0.562988 9.31764 0.635756 8.9519 0.777135 8.61066C0.918513 8.26943 1.12573 7.95939 1.38696 7.69826C1.64818 7.43713 1.95829 7.23002 2.29958 7.08876C2.64086 6.94751 3.00663 6.87487 3.37599 6.875H5.62599C5.99543 6.87487 6.36128 6.94754 6.70263 7.08886C7.04398 7.23018 7.35414 7.43738 7.61537 7.69862C7.87661 7.95985 8.08381 8.27001 8.22513 8.61136C8.36645 8.9527 8.43912 9.31855 8.43899 9.688V11.375H8.43699ZM4.49999 1.25C4.72159 1.25 4.94103 1.29365 5.14577 1.37845C5.3505 1.46326 5.53653 1.58756 5.69323 1.74426C5.84993 1.90096 5.97423 2.08698 6.05903 2.29172C6.14384 2.49646 6.18749 2.71589 6.18749 2.9375C6.18749 3.15911 6.14384 3.37854 6.05903 3.58328C5.97423 3.78802 5.84993 3.97404 5.69323 4.13074C5.53653 4.28744 5.3505 4.41174 5.14577 4.49655C4.94103 4.58135 4.72159 4.625 4.49999 4.625C4.05244 4.625 3.62321 4.44721 3.30675 4.13074C2.99028 3.81427 2.81249 3.38505 2.81249 2.9375C2.81249 2.48995 2.99028 2.06072 3.30675 1.74426C3.62321 1.42779 4.05244 1.25 4.49999 1.25ZM4.49999 0.125C3.75407 0.125 3.0387 0.421316 2.51125 0.948762C1.9838 1.47621 1.68749 2.19158 1.68749 2.9375C1.68749 3.68342 1.9838 4.39879 2.51125 4.92624C3.0387 5.45368 3.75407 5.75 4.49999 5.75C5.24591 5.75 5.96128 5.45368 6.48873 4.92624C7.01617 4.39879 7.31249 3.68342 7.31249 2.9375C7.31249 2.19158 7.01617 1.47621 6.48873 0.948762C5.96128 0.421316 5.24591 0.125 4.49999 0.125Z" fill="#7974C3"/>
</svg>
