<svg width="17" height="19" viewBox="0 0 17 19" fill="none" xmlns="http://www.w3.org/2000/svg">
<path d="M13.3478 5.06669H13.0769V2.53336C13.0769 2.36701 13.0431 2.2023 12.9774 2.04861C12.9117 1.89493 12.8154 1.75529 12.6939 1.63766C12.5725 1.52004 12.4283 1.42674 12.2697 1.36309C12.111 1.29944 11.941 1.26668 11.7692 1.26669H8.38823C8.25293 0.896231 8.0024 0.5755 7.67113 0.348654C7.33987 0.121807 6.94415 0 6.53846 0C6.13277 0 5.73706 0.121807 5.40579 0.348654C5.07452 0.5755 4.82399 0.896231 4.68869 1.26669H1.30769C1.13596 1.26668 0.965907 1.29944 0.807244 1.36309C0.648582 1.42674 0.504417 1.52004 0.382984 1.63766C0.261551 1.75529 0.165228 1.89493 0.0995148 2.04861C0.0338018 2.2023 -1.34142e-05 2.36701 3.99176e-09 2.53336V15.2C-1.34142e-05 15.3663 0.0338018 15.5311 0.0995148 15.6848C0.165228 15.8384 0.261551 15.9781 0.382984 16.0957C0.504417 16.2133 0.648582 16.3066 0.807244 16.3703C0.965907 16.4339 1.13596 16.4667 1.30769 16.4667H5.23077V17.7333C5.23077 18.0693 5.36854 18.3915 5.61378 18.629C5.85902 18.8665 6.19164 19 6.53846 19H15.6923C16.0391 19 16.3717 18.8665 16.617 18.629C16.8622 18.3915 17 18.0693 17 17.7333V8.60434L13.3478 5.06669ZM6.53846 1.26669C6.66778 1.26669 6.79419 1.30384 6.90172 1.37343C7.00924 1.44302 7.09305 1.54193 7.14254 1.65766C7.19202 1.77339 7.20497 1.90073 7.17974 2.02358C7.15452 2.14644 7.09224 2.25929 7.0008 2.34786C6.90936 2.43643 6.79285 2.49675 6.66602 2.52119C6.53919 2.54563 6.40772 2.53309 6.28825 2.48515C6.16877 2.43721 6.06665 2.35604 5.99481 2.25189C5.92296 2.14774 5.88462 2.02529 5.88462 1.90003C5.88462 1.73206 5.9535 1.57097 6.07612 1.45219C6.19874 1.33342 6.36505 1.26669 6.53846 1.26669ZM5.23077 6.33335V15.2H1.30769V2.53336H4.68869C4.82399 2.90382 5.07452 3.22455 5.40579 3.4514C5.73706 3.67825 6.13277 3.80005 6.53846 3.80005C6.94415 3.80005 7.33987 3.67825 7.67113 3.4514C8.0024 3.22455 8.25293 2.90382 8.38823 2.53336H11.7692V5.06669H6.53846C6.19164 5.06669 5.85902 5.20014 5.61378 5.43769C5.36854 5.67523 5.23077 5.99741 5.23077 6.33335ZM15.6923 17.7333H6.53846V6.33335H11.7692V8.23335C11.7698 8.73709 11.9767 9.22003 12.3444 9.57622C12.7121 9.93242 13.2107 10.1328 13.7308 10.1333H15.6923V17.7333ZM13.7308 8.86668C13.5574 8.86668 13.391 8.79996 13.2684 8.68118C13.1458 8.56241 13.0769 8.40132 13.0769 8.23335V6.59569L15.4215 8.86668H13.7308ZM14.3846 13.3C14.3846 13.468 14.3157 13.6291 14.1931 13.7478C14.0705 13.8666 13.9042 13.9333 13.7308 13.9333H8.5C8.32659 13.9333 8.16028 13.8666 8.03766 13.7478C7.91504 13.6291 7.84615 13.468 7.84615 13.3C7.84615 13.132 7.91504 12.9709 8.03766 12.8522C8.16028 12.7334 8.32659 12.6667 8.5 12.6667H13.7308C13.9042 12.6667 14.0705 12.7334 14.1931 12.8522C14.3157 12.9709 14.3846 13.132 14.3846 13.3ZM14.3846 15.8333C14.3846 16.0013 14.3157 16.1624 14.1931 16.2812C14.0705 16.3999 13.9042 16.4667 13.7308 16.4667H8.5C8.32659 16.4667 8.16028 16.3999 8.03766 16.2812C7.91504 16.1624 7.84615 16.0013 7.84615 15.8333C7.84615 15.6654 7.91504 15.5043 8.03766 15.3855C8.16028 15.2667 8.32659 15.2 8.5 15.2H13.7308C13.9042 15.2 14.0705 15.2667 14.1931 15.3855C14.3157 15.5043 14.3846 15.6654 14.3846 15.8333ZM7.84615 10.7667C7.84615 10.5987 7.91504 10.4376 8.03766 10.3188C8.16028 10.2001 8.32659 10.1333 8.5 10.1333H11.1154C11.2888 10.1333 11.4551 10.2001 11.5777 10.3188C11.7003 10.4376 11.7692 10.5987 11.7692 10.7667C11.7692 10.9346 11.7003 11.0957 11.5777 11.2145C11.4551 11.3333 11.2888 11.4 11.1154 11.4H8.5C8.32659 11.4 8.16028 11.3333 8.03766 11.2145C7.91504 11.0957 7.84615 10.9346 7.84615 10.7667Z" fill="#7974C3"/>
</svg>
