<svg width="22" height="24" viewBox="0 0 22 24" fill="none" xmlns="http://www.w3.org/2000/svg">
<g clip-path="url(#clip0_10_5)">
<path fill-rule="evenodd" clip-rule="evenodd" d="M17.1756 6C17.8145 6 18.3334 6.576 18.3334 7.286V19.714C18.3334 20.424 17.8145 21 17.1756 21H7.52585C7.37237 20.9986 7.22065 20.9642 7.07935 20.8988C6.93806 20.8333 6.80996 20.7382 6.70236 20.6188C6.59477 20.4994 6.50979 20.358 6.45228 20.2028C6.39477 20.0475 6.36586 19.8814 6.36719 19.714V7.286C6.36719 6.576 6.88602 6 7.52585 6H17.1756ZM17.1756 7.286H7.52585V19.714H17.1747L17.1756 7.286ZM15.554 16.714V17.914H9.07044V16.714H15.554ZM15.554 13.286V14.486H9.07044V13.286H15.554ZM12.9296 3V4.286H4.82444V13.286H3.66669V4.286C3.66669 3.576 4.18552 3 4.82444 3H12.9296ZM15.554 9.857V11.057H9.07044V9.857H15.554Z" fill="#7974C3"/>
</g>
<defs>
<clipPath id="clip0_10_5">
<rect width="22" height="24" fill="white"/>
</clipPath>
</defs>
</svg>
