<svg width="24" height="24" viewBox="0 0 24 24" xmlns="http://www.w3.org/2000/svg">
    <g fill="none" fill-rule="evenodd">
        <path d="M0 0h24v24H0z"/>
        <path d="M18.727 9.262c.289.64-.93 1.236-1.223.589-1.378-3.051-4.967-4.346-8.001-2.885a6.175 6.175 0 0 0-2.48 2.178l1.88 1.105-4.275 2.059L4 7.37l1.873 1.098a7.572 7.572 0 0 1 3.075-2.732c3.713-1.788 8.092-.21 9.779 3.525zm-1.75 6.6a6.183 6.183 0 0 1-2.476 2.171c-3.034 1.461-6.624.167-8.001-2.884-.293-.647-1.512-.052-1.223.589 1.687 3.735 6.065 5.313 9.779 3.525a7.57 7.57 0 0 0 3.07-2.726L20 17.63l-.625-4.93-4.276 2.058 1.879 1.103z" fill="#EAEFF8"/>
    </g>
</svg>
