<svg width="32" height="32" viewBox="0 0 32 32" xmlns="http://www.w3.org/2000/svg">
    <g fill="none" fill-rule="evenodd">
        <rect fill="none" width="32" height="32" rx="3.556"/>
        <circle fill="#FFF" cx="16" cy="16" r="15.111"/>
        <path d="M17.194 19.418c0-.426.021-.775.065-1.047.043-.271.13-.515.26-.732.13-.217.326-.445.586-.684a19.109 19.109 0 0 0 1.508-1.546c.42-.488.744-.995.971-1.519a4.297 4.297 0 0 0 .342-1.73c0-1.339-.428-2.39-1.286-3.153-.857-.763-2.052-1.145-3.586-1.145-.94 0-1.77.163-2.49.489-.72.325-1.282.79-1.687 1.394-.405.604-.6 1.326-.586 2.165l.021.065h2.648c0-.63.204-1.103.613-1.422.409-.318.903-.477 1.481-.477.68 0 1.206.188 1.579.564.373.376.559.908.559 1.595 0 .376-.063.744-.19 1.102a4.152 4.152 0 0 1-.586 1.074 6.615 6.615 0 0 1-1.047 1.09c-.405.34-.732.639-.982.895-.25.257-.44.518-.57.782-.13.264-.22.571-.271.922-.05.35-.076.79-.076 1.318h2.724zm.032 4.47v-2.56h-2.778v2.56h2.778z" fill="#5156BE" fill-rule="nonzero"/>
    </g>
</svg>
