<svg xmlns="http://www.w3.org/2000/svg" height="24" viewBox="0 -960 960 960" width="24"><path d="M215.448-108.078q-28.346 0-48.262-19.916-19.915-19.916-19.915-48.262v-529.103q0-28.347 19.915-48.262 19.916-19.916 48.353-19.916h59.424v-84.616h57.499v84.616h296.614v-84.616h55.961v84.616h59.424q28.437 0 48.353 19.916 19.915 19.915 19.915 48.262v529.103q0 28.346-19.915 48.262-19.916 19.916-48.262 19.916H215.448Zm.091-55.96h528.922q4.615 0 8.462-3.847 3.846-3.846 3.846-8.462v-369.729H203.231v369.729q0 4.616 3.846 8.462 3.847 3.847 8.462 3.847Zm-12.308-437.998h553.538v-103.232q0-4.616-3.846-8.463-3.847-3.846-8.462-3.846H215.539q-4.615 0-8.462 3.846-3.846 3.847-3.846 8.463v103.232Zm0 0v-115.541 115.541Z" fill="#959595"/></svg>