<svg width="24" height="24" viewBox="0 0 24 24" xmlns="http://www.w3.org/2000/svg" xmlns:xlink="http://www.w3.org/1999/xlink">
    <defs>
        <path d="M12.5 5c2.957 0 5.546 1.179 7.748 3.117a15.586 15.586 0 0 1 1.97 2.088c.336.43.567.769.69.972a.61.61 0 0 1 0 .646c-.123.203-.354.542-.69.972a15.586 15.586 0 0 1-1.97 2.088C18.046 16.82 15.458 18 12.5 18c-2.957 0-5.546-1.179-7.748-3.117a15.586 15.586 0 0 1-1.97-2.088c-.336-.43-.567-.769-.69-.972a.61.61 0 0 1 0-.646c.123-.203.354-.542.69-.972a15.586 15.586 0 0 1 1.97-2.088C6.954 6.18 9.542 5 12.5 5zm0 1.5c-2.367 0-4.504.977-6.376 2.631A13.903 13.903 0 0 0 4 11.5a13.903 13.903 0 0 0 2.124 2.369c1.872 1.654 4.01 2.631 6.376 2.631 2.367 0 4.504-.977 6.376-2.631A13.903 13.903 0 0 0 21 11.5a13.903 13.903 0 0 0-2.124-2.369C17.004 7.477 14.866 6.5 12.5 6.5z" id="eb2mq5o1wa"/>
        <path d="M12.5 6c.31 0 .611.031.903.09a2.001 2.001 0 1 0 2.563 1.54A4.5 4.5 0 1 1 12.5 6z" id="sb209nl2eb"/>
    </defs>
    <g fill="#5156BE" fill-rule="evenodd">
        <use xlink:href="#eb2mq5o1wa"/>
        <use xlink:href="#sb209nl2eb"/>
    </g>
</svg>
