<svg width="24" height="24" viewBox="0 0 24 24" xmlns="http://www.w3.org/2000/svg">
    <path d="M11.469 15.564c-2.795-.313-4.73-3.017-4.06-5.8l4.06 5.8zm.531 1.14a9.65 9.65 0 0 1-8.333-4.721A9.569 9.569 0 0 1 6.734 8.8l-.956-1.366a11.235 11.235 0 0 0-3.547 3.702 1.667 1.667 0 0 0 0 1.693A11.318 11.318 0 0 0 12 18.372c.46 0 .92-.028 1.377-.083l-1.112-1.588a9.867 9.867 0 0 1-.265.004zm9.77-3.875a11.267 11.267 0 0 1-4.985 4.496l1.67 2.387a.417.417 0 0 1-.102.58l-.72.504a.417.417 0 0 1-.58-.102L5.545 4.254a.417.417 0 0 1 .102-.58l.72-.505a.417.417 0 0 1 .58.102l1.928 2.755A11.453 11.453 0 0 1 12 5.594c4.162 0 7.812 2.222 9.77 5.542.307.523.307 1.17 0 1.693zm-1.437-.846a9.638 9.638 0 0 0-7.505-4.688 1.944 1.944 0 1 0 3.339 1.354v-.001a4.722 4.722 0 0 1-1.283 5.962l.927 1.324a9.602 9.602 0 0 0 4.522-3.951z" fill="#5156BE" fill-rule="evenodd"/>
</svg>
