<svg xmlns="http://www.w3.org/2000/svg" width="36" height="36" viewBox="0 0 36 36"><g fill="none" fill-rule="evenodd"><path fill="#E8E8E8" d="M18,0 C8.0588745,0 0,8.0588745 0,18 C0,27.9411255 8.0588745,36 18,36 C27.9411255,36 36,27.9411255 36,18 C36,13.2261032 34.1035769,8.64773275 30.7279221,5.27207794 C27.3522672,1.89642313 22.7738968,0 18,0 Z"/><path fill="#4850B2" d="M18,24 C16.8954305,24 16,24.8954305 16,26 C16,27.1045695 16.8954305,28 18,28 C19.1045695,28 20,27.1045695 20,26 C20,24.8954305 19.1045695,24 18,24 Z M16.3,7 L19.8,7 L19.3020126,22 L16.8513129,22 L16.3,7 Z"/></g></svg>