<svg xmlns="http://www.w3.org/2000/svg" width="36" height="36" viewBox="0 0 36 36"><g fill="none" fill-rule="evenodd"><circle cx="18" cy="18" r="18" fill="#E8E8E8"/><path fill="#ED3854" d="M12,17.25 C11.3786797,17.25 10.875,17.7536797 10.875,18.375 C10.875,18.9963203 11.3786797,19.5 12,19.5 C12.6213203,19.5 13.125,18.9963203 13.125,18.375 C13.125,17.7536797 12.6213203,17.25 12,17.25 Z M11.25,9 L12.75,9 L12.75,15.75 L11.25,15.75 L11.25,9 Z M21.75,22.5 L2.25,22.5 C1.98793954,22.5 1.74488309,22.3632198 1.60888824,22.1392084 C1.47289339,21.9151971 1.4636853,21.636448 1.5846,21.40395 L11.3346,2.65395 C11.463689,2.40572395 11.7202141,2.24998878 11.9999937,2.24998878 C12.2797859,2.24998878 12.536311,2.40572395 12.6654,2.65395 L22.4154,21.40395 C22.5363147,21.636448 22.5271066,21.9151971 22.3911118,22.1392084 C22.2551169,22.3632198 22.0120605,22.5 21.75,22.5 Z M3.488025,21 L20.511975,21 L20.513475,20.997525 L12.0015,4.62855 L11.9985,4.62855 L3.486525,20.997525 L3.488025,21 Z" transform="translate(6 4)"/></g></svg>