<svg width="18" height="18" viewBox="0 0 18 18" xmlns="http://www.w3.org/2000/svg">
    <path d="M14.625 10.125a2.247 2.247 0 0 0-2.17 1.688h-2.33a1.69 1.69 0 0 1-1.688-1.688v-2.25a2.785 2.785 0 0 0-.576-1.688h4.594a2.25 2.25 0 1 0 0-1.125h-6.91a2.25 2.25 0 1 0 0 1.125h.08a1.69 1.69 0 0 1 1.688 1.688v2.25a2.816 2.816 0 0 0 2.812 2.813h2.33a2.246 2.246 0 1 0 2.17-2.813zm0-5.625a1.125 1.125 0 1 1 0 2.25 1.125 1.125 0 0 1 0-2.25zM3.375 6.75a1.125 1.125 0 1 1 0-2.25 1.125 1.125 0 0 1 0 2.25zm11.25 6.75a1.125 1.125 0 1 1 0-2.25 1.125 1.125 0 0 1 0 2.25z" fill="#A1B3DE" fill-rule="evenodd"/>
</svg>
