<svg width="18" height="18" viewBox="0 0 18 18" xmlns="http://www.w3.org/2000/svg">
    <g fill="none" fill-rule="evenodd">
        <path d="M9 1.36c2.11 0 4.02.855 5.403 2.237A7.617 7.617 0 0 1 16.64 9c0 2.11-.855 4.02-2.237 5.403A7.616 7.616 0 0 1 9 16.64c-2.11 0-4.02-.855-5.403-2.237A7.617 7.617 0 0 1 1.36 9c0-2.11.855-4.02 2.237-5.403A7.616 7.616 0 0 1 9 1.36z" stroke="#A1B3DE" stroke-width="1.219"/>
        <path d="M9.085 13.024c-1.017-.107-1.795-.643-2.335-1.606l.878-.837c.44.855.98 1.283 1.62 1.283.846 0 1.269-.442 1.269-1.324 0-.197-.041-.373-.122-.526-.081-.153-.239-.286-.473-.398-.234-.113-.62-.295-1.16-.547-1.036-.486-1.553-1.148-1.553-1.985 0-.611.167-1.124.5-1.538.332-.415.791-.676 1.377-.784V3.75h.796v1.026a2.436 2.436 0 0 1 1.715.931l-.595.865c-.378-.468-.823-.702-1.336-.702-.324 0-.594.098-.81.296a.996.996 0 0 0-.324.77c0 .396.288.724.864.986 1.125.513 1.816.94 2.072 1.282.257.342.385.747.385 1.215 0 .648-.171 1.204-.513 1.667-.342.464-.828.758-1.458.884v1.08h-.796v-1.026z" fill="#A1B3DE"/>
    </g>
</svg>
