<svg width="18" height="18" viewBox="0 0 18 18" xmlns="http://www.w3.org/2000/svg">
    <path d="M5.659 10.057c.173.043.35.065.529.068a2.25 2.25 0 0 0 1.254-.383l1.811 1.615c-.29.551-.331 1.2-.112 1.783a2.25 2.25 0 1 0 3.583-2.453l1.428-2.863c.564.127 1.155.02 1.637-.298a2.25 2.25 0 1 0-2.638-.213l-1.428 2.863a2.25 2.25 0 0 0-1.727.332L8.184 8.893c.29-.551.332-1.2.113-1.783a2.25 2.25 0 1 0-3.628 2.413l-2.419 4.54V1.124H1.125V15.75c0 .621.504 1.125 1.125 1.125h14.625V15.75H2.627l3.032-5.693zM14.625 4.5a1.125 1.125 0 1 1 0 2.25 1.125 1.125 0 0 1 0-2.25zm-2.25 7.875a1.125 1.125 0 1 1-2.25 0 1.125 1.125 0 0 1 2.25 0zM6.187 6.75a1.125 1.125 0 1 1 0 2.25 1.125 1.125 0 0 1 0-2.25z" fill="#A1B3DE" fill-rule="evenodd"/>
</svg>
