<svg width="20" height="20" viewBox="0 0 20 20" xmlns="http://www.w3.org/2000/svg">
    <g fill="none" fill-rule="evenodd">
        <path d="M0 0h20v20H0z"/>
        <path d="M3.75 12.5v1.25H2.5v3.75h15v-3.75h-5.625V12.5H17.5c.647 0 1.179.492 1.243 1.122l.007.128v3.75c0 .647-.492 1.179-1.122 1.243l-.128.007h-15a1.252 1.252 0 0 1-1.243-1.122L1.25 17.5v-3.75c0-.647.492-1.179 1.122-1.243L2.5 12.5h1.25zm.625 2.5a.625.625 0 1 1 0 1.25.625.625 0 0 1 0-1.25zm8.75-13.75a3.75 3.75 0 0 1 0 7.5c-.116 0-.232-.006-.347-.019L9.008 12.5H5.626V9.116l3.769-3.769A3.345 3.345 0 0 1 9.375 5a3.75 3.75 0 0 1 3.75-3.75zm-1.258 1.54a2.532 2.532 0 0 0-1.195 2.664l.06.323-3.857 3.857v1.616h1.616l3.857-3.857.323.06a2.532 2.532 0 1 0-.804-4.663zm1.57.96a.937.937 0 1 1 0 1.875.937.937 0 0 1 0-1.875z" fill="#727B90"/>
    </g>
</svg>
