<svg width="18" height="18" viewBox="0 0 18 18" xmlns="http://www.w3.org/2000/svg">
    <path d="M11.25 11.813h-4.5a1.125 1.125 0 0 1-1.125-1.126V9.563c0-.622.504-1.126 1.125-1.126h4.5c.621 0 1.125.504 1.125 1.126v1.124c0 .622-.504 1.126-1.125 1.126zm-4.5-2.25v1.124h4.5V9.563h-4.5zm9-7.313H2.25c-.621 0-1.125.504-1.125 1.125v2.25c0 .621.504 1.125 1.125 1.125v9c0 .621.504 1.125 1.125 1.125h11.25c.621 0 1.125-.504 1.125-1.125v-9c.621 0 1.125-.504 1.125-1.125v-2.25c0-.621-.504-1.125-1.125-1.125zm-1.125 13.5H3.375v-9h11.25v9zM15.75 5.625H2.25v-2.25h13.5v2.25z" fill="#A1B3DE" fill-rule="evenodd"/>
</svg>
