<svg width="18" height="18" viewBox="0 0 18 18" xmlns="http://www.w3.org/2000/svg">
    <path d="M9 13.5 5.574 8.662A4.579 4.579 0 0 1 9 1.125a4.545 4.545 0 0 1 4.5 4.573 4.613 4.613 0 0 1-1.012 2.886L9 13.5zM9 2.25a3.414 3.414 0 0 0-3.375 3.448c.004.826.3 1.623.838 2.25L9 11.543l2.604-3.668a3.51 3.51 0 0 0 .771-2.177A3.414 3.414 0 0 0 9 2.25zm0 3.938a1.125 1.125 0 1 0 0-2.25 1.125 1.125 0 0 0 0 2.25zm6.75.562h-1.125v1.125h1.125v7.875H2.25V7.875h1.125V6.75H2.25c-.621 0-1.125.504-1.125 1.125v7.875c0 .621.504 1.125 1.125 1.125h13.5c.621 0 1.125-.504 1.125-1.125V7.875c0-.621-.504-1.125-1.125-1.125z" fill="#A1B3DE" fill-rule="evenodd"/>
</svg>
