<svg width="18" height="18" viewBox="0 0 18 18" xmlns="http://www.w3.org/2000/svg">
    <path d="M17.438 16.875h-1.125v-1.688c0-.931-.756-1.687-1.688-1.687h-2.25c-.932 0-1.688.756-1.688 1.688v1.687H9.563v-1.688a2.812 2.812 0 0 1 2.812-2.812h2.25a2.812 2.812 0 0 1 2.813 2.813v1.687zM13.5 6.75a1.688 1.688 0 1 1 0 3.375 1.688 1.688 0 0 1 0-3.375m0-1.125a2.812 2.812 0 1 0 0 5.625 2.812 2.812 0 0 0 0-5.625zm-5.063 6.75H7.313v-1.688C7.313 9.756 6.556 9 5.625 9h-2.25c-.932 0-1.688.756-1.688 1.688v1.687H.563v-1.688a2.812 2.812 0 0 1 2.813-2.812h2.25a2.812 2.812 0 0 1 2.813 2.813v1.687zM4.5 2.25a1.687 1.687 0 1 1 0 3.375 1.687 1.687 0 0 1 0-3.375m0-1.125a2.812 2.812 0 1 0 0 5.625 2.812 2.812 0 0 0 0-5.625z" fill="#A1B3DE" fill-rule="evenodd"/>
</svg>
