<svg width="18" height="18" viewBox="0 0 18 18" xmlns="http://www.w3.org/2000/svg">
    <path d="M15.188 3.375v2.813H9.561V3.374h5.626m0-1.125H9.561c-.62 0-1.124.504-1.124 1.125v2.813c0 .62.503 1.125 1.124 1.125h5.626c.62 0 1.124-.504 1.124-1.125V3.374c0-.621-.503-1.125-1.125-1.125zM6.75 14.063H3.375v-4.5H6.75V8.437H3.375c-.621 0-1.125.504-1.125 1.126v4.5c0 .62.504 1.124 1.125 1.124H6.75v-1.124zm10.125-2.813h-7.41l1.455-1.455L10.125 9l-2.813 2.813 2.813 2.812.795-.795-1.454-1.455h7.409V11.25zM6.187 3.375v2.813H3.376V3.374h2.813m0-1.125H3.374c-.621 0-1.125.504-1.125 1.125v2.813c0 .62.504 1.125 1.125 1.125h2.813c.62 0 1.125-.504 1.125-1.125V3.374c0-.621-.504-1.125-1.125-1.125z" fill="#A1B3DE" fill-rule="evenodd"/>
</svg>
