<svg width="18" height="18" viewBox="0 0 18 18" xmlns="http://www.w3.org/2000/svg">
    <path d="m9 16.875-4.745-5.596a19.73 19.73 0 0 1-.196-.254 6.125 6.125 0 0 1-1.247-3.713 6.188 6.188 0 0 1 12.376 0 6.123 6.123 0 0 1-1.246 3.711l-.001.002s-.169.222-.194.252L9 16.875zm-4.043-6.528s.131.174.161.21L9 15.137l3.887-4.585c.025-.03.156-.205.157-.205a5.007 5.007 0 0 0 1.019-3.034 5.063 5.063 0 0 0-10.126 0 5.01 5.01 0 0 0 1.02 3.035zm6.856-.222h-1.126v-4.5H7.313v4.5H6.188v-4.5c0-.621.503-1.124 1.125-1.125h3.375c.62 0 1.124.504 1.124 1.125v4.5zM8.437 9h1.126v1.125H8.437V9zm0-2.25h1.126v1.125H8.437V6.75z" fill="#A1B3DE" fill-rule="evenodd"/>
</svg>
