<svg width="18" height="18" viewBox="0 0 18 18" xmlns="http://www.w3.org/2000/svg">
    <g stroke="#A1B3DE" stroke-width="1.07" fill="none" fill-rule="evenodd">
        <path d="M4.682 11.364H1.5v5.568h3.182v-5.568zm4.772 5.803c.65.184 1.19.2 2.213-.462 1.18-.764 2.2-1.397 4.054-2.996 1.165-1.004 0-2.345-.835-1.832-.585.36-2.064 1.311-2.7 1.687-.35.205-.836.312-1.196.312-.085 0-.178-.01-.278-.034-.521-.12-1.498-.338-2.191-.557-.458-.146-.358-.108.15 0 .356.074 1.268.278 1.75.413.81.224 1.016-1.371.337-1.598-.448-.151-.428-.157-1.503-.529-1.035-.359-1.761-.599-2.852-.124-.508.221-1.139.49-1.721.648v4.16c1.664.093 3.504.553 4.772.912z"/>
        <g stroke-linecap="round" stroke-linejoin="round">
            <path d="m10.075.75-.058.298-.225 1.09a3.764 3.764 0 0 0-.977.56l-1.097-.366-.294-.091-.153.263-.755 1.262-.152.263.223.195.848.722c-.03.189-.07.375-.07.574 0 .198.04.385.07.573l-.848.722-.223.195.152.263.755 1.262.153.264.294-.092 1.097-.366c.294.23.619.424.977.561l.225 1.09.058.297h2.122l.059-.298.224-1.089c.358-.137.683-.331.977-.561l1.097.366.294.092.154-.264.754-1.262.153-.263-.224-.195-.848-.722c.031-.188.07-.375.07-.573 0-.199-.039-.385-.07-.574l.848-.722.224-.195-.153-.263-.754-1.262-.154-.263-.294.091-1.097.367a3.764 3.764 0 0 0-.977-.562l-.224-1.09-.06-.297h-2.121z"/>
            <path d="M12.5 5.52a1.364 1.364 0 1 1-2.728-.002 1.364 1.364 0 0 1 2.728.002z"/>
        </g>
    </g>
</svg>
