<svg width="411" height="113" viewBox="0 0 411 113" xmlns="http://www.w3.org/2000/svg">
    <g fill="none" fill-rule="evenodd">
        <path d="M46.058 100.23c2.216-1.588 5.57-2.736 10.036-3.297 4.466-.561 5.834-.77 9.963-.561 1.013.051 1.13.137 1.658-.668 2.683-4.094 6.73-10.22 12.143-18.379L85 77c-6.33 8.623-11.274 15.444-14.831 20.465 4.8 1.495 3.792 1.594 7.95 4.043-7.95-1.899-10.723-1.914-16.976-.357-4.015 1-8.257 2.022-16.143 4.849.01-.053 3.027-2.61 6.758-4.211 3.731-1.601 6.351-2.437 7.632-2.829-.005-.17-1.73.03-4.606.015-1.919-.01-4.827.409-8.726 1.256z" fill="#F76C92"/>
        <path d="M159.871 38c-1.526.988-8.191 4.935-8.259 4.997.068.058.122-.663.122-.783 0 0 7.32-6.518 7.301-6.444-6.062.469-16.07.957-22.423 1.602.007-.09-2.62-1.142-2.612-1.232 3.722.067 27.15-3.192 32.432-3.14.067.076.5.151.568.227-2.804 2.117-5.603 3.785-7.129 4.773zM134.193 49.303c-10.142 3.257-10.26 3.396-20.861 5.3-5.852 1.051-14.321 1.649-20.84 1.45-14.949-.452-20.42-2.744-20.294-2.72 7.7 1.542 17.313 1.544 30.714.364 11.326-.998 16.936-3.163 23.498-4.822 2.677-.677 8.54-3.081 10.774-4.313-.338-.291-.442-.408-.568-.486-8.198-5.1-16.694-9.496-25.663-12.788-17.759-6.52-31.799-9.29-47.544-7.965-8.334.702-14.71 4.436-17.85 10.336-3.714 6.982 0 14.326 2.9 18.134 6.37 8.366 17.132 11.918 27.667 13.506 9.563 1.443 19.054.536 28.435-1.607 13.406-3.062 25.992-8.255 38.038-14.817 2.5-1.362 4.936-2.845 7.401-4.272-.604-.145-1.084-.038-1.55.112-4.754 1.525-9.503 3.062-14.257 4.588z" fill="#B6D421"/>
        <path d="M130.919 35c-2.595-1.233-5.166-2.519-7.79-3.69-13.335-5.95-20.388-8.35-35.35-10.435-3.726-.52-10.279-1.159-15.675-1.164-3.348-.003-6.117.113-8.308.347-3.071-1.705-5.443-3.517-7.115-5.436-2.508-2.878-4.263-4.36-6.362-5.757-4.248-2.826-8.793-5.462-13.954-4.163-2.2.554-3.357.997-7.743 3.484-1.625.921-4.55 3.462-4.622 3.307 2.191-3.839 3.361-5.817 6.422-8.296C33.284.878 36.695.46 39.275.037c14.386-.87 22.241 13.693 23.499 15.411 0 0 13.234-.974 22.237.355 13.068 1.928 22.58 6.136 33.993 11.887 3.906 1.968 11.781 7 11.996 7.193l-.081.117z" fill="#B6D421"/>
        <path d="M22.602 22c.8-.353 5.102-2.34 5.154-2.353-4.018-.685-8.832-1.522-11.28-2.083 3.141-.079 9.106.427 12.524.907-.71-1.412-3.843-4.765-4.799-5.471-7.798.132-7.828.294-12.56 1.243-3.103.622-7.464 1.72-11.641 3.727 4.855-.252 15.493 2.031 22.602 4.03M75 95.166c.136-.233.322-.63.577-.979 2.955-4.039 7.386-10.098 13.293-18.178L94 75c-6.954 8.516-11.946 14.737-14.977 18.662L87.45 98.7l-.21.299L75 95.166z" fill="#F76C92"/>
        <path d="M34.232 16.361c-1.099-1.656-.358-3.434.898-4.48 1.269-1.057 3.57-.453 4.468.9.885 1.335.39 3.62-.898 4.48-1.296.865-3.423.675-4.468-.9M91.83 70.139c-6.484.535-13.904.525-20.23-.908-9.385-2.125-18.6-5.945-25.37-13.26-3.57-3.858-6.176-7.378-7.175-11.933-.965-4.398 0-11.41 6.414-16.597 5.263-4.255 11.55-5.762 17.99-5.003-1.8-1.338-1.922-1.156-3.874-2.75-3.681-3.006-5.538-6.317-10.781-9.475-9.645-5.81-14.896-3.128-24.07 3.158 2.302 1.852 4.118 4.038 5.935 7.226-2.06.911-7.145 3.462-7.811 3.644-1.03-.152-1.223-.017-1.858-.321 4.83 4.086 4.642 8.38 6.574 15.262 1.932 6.882 3.848 11.141 8.208 16.79 4.342 5.624 8.461 9.975 14.649 13.785 10.59 6.52 25.027 8.474 38.238 6.52C102.77 74.192 120.37 66.21 132 57.892c-.415.173-4.823 2.43-8.274 3.877-3.452 1.447-19.604 7.357-31.896 8.37z" fill="#FFF"/>
        <path fill="#B6D421" d="m142 49.64 28.762 13.324 1.21.036L186 52.295l-.397-.623L152.24 45l-1.512.013-8.72 4.136z"/>
        <g>
            <path d="m318.542 91.429 2.483-9.282h-1.235l-1.885 7.722h-.026l-2.054-7.722h-1.34l-2.08 7.722h-.025l-1.82-7.722h-1.261l2.379 9.282h1.287l2.145-7.8h.026l2.119 7.8h1.287zm8.138-4.004a2.26 2.26 0 0 0-.176-.741 1.894 1.894 0 0 0-.403-.605 1.89 1.89 0 0 0-1.359-.553c-.285 0-.543.05-.773.15-.23.1-.426.236-.591.41a1.96 1.96 0 0 0-.39.604c-.095.23-.152.475-.17.735h3.862zm1.066 1.872c-.147.754-.472 1.321-.975 1.703-.503.38-1.135.572-1.898.572-.537 0-1.003-.087-1.398-.26a2.755 2.755 0 0 1-.994-.728 3.093 3.093 0 0 1-.605-1.118 5.387 5.387 0 0 1-.227-1.417c0-.512.078-.98.234-1.404.156-.425.375-.793.656-1.105a2.979 2.979 0 0 1 2.269-.988c.598 0 1.094.123 1.488.37.395.247.711.561.95.943.238.38.402.797.493 1.248.091.45.128.88.11 1.287h-5.03c-.009.294.026.574.104.838a1.9 1.9 0 0 0 .377.702c.173.204.394.366.663.488.269.12.585.182.949.182.468 0 .851-.109 1.15-.325.3-.217.497-.546.592-.988h1.092zm1.287-7.15h1.105v3.47h.026c.182-.372.468-.643.858-.812.39-.169.819-.253 1.287-.253.52 0 .973.095 1.358.286.386.19.707.448.962.773.256.325.449.7.579 1.125.13.424.195.875.195 1.352 0 .476-.063.927-.189 1.352a3.183 3.183 0 0 1-.572 1.111 2.697 2.697 0 0 1-.962.748c-.385.182-.834.273-1.345.273a3.322 3.322 0 0 1-1.157-.221 2.362 2.362 0 0 1-.566-.319 1.78 1.78 0 0 1-.448-.5h-.026v.897h-1.105v-9.282zm5.2 5.863c0-.312-.041-.618-.124-.917a2.473 2.473 0 0 0-.377-.8 1.847 1.847 0 0 0-.65-.558 1.974 1.974 0 0 0-.93-.208c-.372 0-.688.073-.948.22-.26.148-.472.34-.637.58-.165.237-.284.508-.358.812a3.897 3.897 0 0 0 .007 1.878c.078.308.201.579.37.813.17.234.388.422.657.565.269.143.594.215.975.215s.7-.074.955-.221c.256-.148.462-.343.618-.585.156-.243.269-.52.338-.832.07-.312.104-.633.104-.962zm7.865-.416h3.146l-1.547-4.33h-.026l-1.573 4.33zm.923-5.447h1.365l3.627 9.282h-1.365l-1.014-2.795h-3.926l-1.04 2.795h-1.261l3.614-9.282zm5.759 2.56h1.105v.91h.026c.182-.372.468-.643.858-.812.39-.169.819-.253 1.287-.253.52 0 .973.095 1.358.286.386.19.707.448.962.773.256.325.449.7.579 1.125.13.424.195.875.195 1.352 0 .476-.063.927-.189 1.352a3.183 3.183 0 0 1-.572 1.111 2.697 2.697 0 0 1-.962.748c-.385.182-.834.273-1.345.273a3.322 3.322 0 0 1-1.157-.221 2.362 2.362 0 0 1-.566-.319 1.78 1.78 0 0 1-.448-.5h-.026v3.458h-1.105v-9.282zm5.2 3.303c0-.312-.041-.618-.124-.917a2.473 2.473 0 0 0-.377-.8 1.847 1.847 0 0 0-.65-.558 1.974 1.974 0 0 0-.93-.208c-.372 0-.688.073-.948.22-.26.148-.472.34-.637.58-.165.237-.284.508-.358.812a3.897 3.897 0 0 0 .007 1.878c.078.308.201.579.37.813.17.234.388.422.657.565.269.143.594.215.975.215s.7-.074.955-.221c.256-.148.462-.343.618-.585.156-.243.269-.52.338-.832.07-.312.104-.633.104-.962zm2.509-3.302h1.105v.91h.026c.182-.373.468-.644.858-.813.39-.169.819-.253 1.287-.253.52 0 .973.095 1.358.286.386.19.707.448.962.773.256.325.449.7.579 1.125.13.424.195.875.195 1.352 0 .476-.063.927-.189 1.352a3.183 3.183 0 0 1-.572 1.111 2.697 2.697 0 0 1-.962.748c-.385.182-.834.273-1.345.273a3.322 3.322 0 0 1-1.157-.221 2.362 2.362 0 0 1-.566-.319 1.78 1.78 0 0 1-.448-.5h-.026v3.458h-1.105v-9.282zm5.2 3.302c0-.312-.041-.618-.124-.917a2.473 2.473 0 0 0-.377-.8 1.847 1.847 0 0 0-.65-.558 1.974 1.974 0 0 0-.93-.208c-.372 0-.688.073-.948.22-.26.148-.472.34-.637.58-.165.237-.284.508-.358.812a3.897 3.897 0 0 0 .007 1.878c.078.308.201.579.37.813.17.234.388.422.657.565.269.143.594.215.975.215s.7-.074.955-.221c.256-.148.462-.343.618-.585.156-.243.269-.52.338-.832.07-.312.104-.633.104-.962zm2.535-5.863v9.282h1.105v-9.282h-1.105zm7.384 4.719h1.144a2.656 2.656 0 0 0-.312-1.034 2.307 2.307 0 0 0-.63-.721 2.612 2.612 0 0 0-.885-.423 4.062 4.062 0 0 0-1.072-.136c-.529 0-.992.093-1.391.28-.399.185-.73.441-.995.766a3.262 3.262 0 0 0-.591 1.144c-.13.438-.195.908-.195 1.41 0 .503.067.965.201 1.385.135.42.334.782.598 1.086.265.303.594.537.988.702.395.164.848.247 1.359.247.858 0 1.536-.226 2.034-.676.499-.451.809-1.092.93-1.924h-1.131c-.07.52-.258.923-.566 1.209-.307.286-.734.429-1.28.429a1.83 1.83 0 0 1-.897-.208 1.745 1.745 0 0 1-.611-.553 2.44 2.44 0 0 1-.345-.786 3.738 3.738 0 0 1-.11-.91c0-.338.035-.666.104-.982.07-.316.184-.596.344-.838.16-.243.375-.438.644-.585.269-.148.602-.221 1-.221.469 0 .842.117 1.119.35.277.235.46.564.546.989zm3.588-3.367v-1.352h-1.105v1.352h1.105zm-1.105 1.209v6.72h1.105v-6.72h-1.105zm8.775 6.695c-.19.112-.455.169-.793.169-.286 0-.514-.08-.683-.24-.169-.161-.253-.423-.253-.787a2.644 2.644 0 0 1-1.06.786c-.403.16-.838.24-1.306.24a3.5 3.5 0 0 1-.865-.103 2.01 2.01 0 0 1-.708-.325 1.56 1.56 0 0 1-.475-.579c-.117-.238-.175-.526-.175-.864 0-.382.065-.694.195-.936.13-.243.301-.44.513-.592.213-.152.455-.266.728-.344.273-.078.553-.143.839-.195.303-.061.591-.107.864-.137.273-.03.514-.074.722-.13.208-.056.373-.139.494-.247.121-.108.182-.266.182-.474 0-.243-.046-.438-.137-.585a.936.936 0 0 0-.35-.338 1.427 1.427 0 0 0-.482-.156 3.632 3.632 0 0 0-.526-.04c-.468 0-.858.09-1.17.267-.312.178-.481.514-.507 1.008h-1.105c.017-.416.104-.767.26-1.053.156-.286.364-.518.624-.696.26-.178.557-.305.89-.383a4.703 4.703 0 0 1 1.073-.117c.303 0 .604.021.903.065.3.043.57.132.813.266s.438.323.585.566c.147.242.22.559.22.949v3.458c0 .26.016.45.046.572.03.12.133.182.306.182.095 0 .208-.022.338-.065v.858zm-1.794-3.445c-.139.104-.32.18-.546.227a8.332 8.332 0 0 1-.709.117c-.247.03-.496.065-.747.104a2.748 2.748 0 0 0-.676.189c-.2.086-.362.21-.488.37-.125.16-.188.38-.188.657 0 .182.037.335.11.461a.921.921 0 0 0 .286.306 1.2 1.2 0 0 0 .41.169c.156.034.32.052.494.052.364 0 .676-.05.936-.15.26-.1.472-.225.637-.377.165-.152.286-.316.364-.494a1.25 1.25 0 0 0 .117-.5v-1.131zm4.355-3.25v-2.015h-1.105v2.015h-1.144v.975h1.144v4.277c0 .312.03.563.09.754.062.19.155.338.28.442.126.104.29.175.494.214.204.04.449.059.735.059h.845v-.975h-.507c-.173 0-.314-.007-.423-.02a.546.546 0 0 1-.253-.084.321.321 0 0 1-.124-.182 1.206 1.206 0 0 1-.032-.312v-4.173h1.339v-.975h-1.34zm3.73-1.21v-1.351h-1.104v1.352h1.105zm-1.104 1.21v6.72h1.105v-6.72h-1.105zm3.627 3.367c0 .407.054.769.162 1.085.109.316.258.58.449.793.19.212.414.375.67.488.255.112.526.169.812.169.286 0 .557-.057.812-.17.256-.112.48-.275.67-.487.19-.212.34-.477.448-.793.109-.316.163-.678.163-1.085 0-.408-.054-.77-.163-1.086a2.343 2.343 0 0 0-.448-.8 1.91 1.91 0 0 0-.67-.493 1.993 1.993 0 0 0-.812-.17c-.286 0-.557.057-.813.17a1.91 1.91 0 0 0-.67.494c-.19.216-.34.483-.448.8a3.344 3.344 0 0 0-.162 1.085zm-1.17 0c0-.494.07-.956.208-1.385.139-.429.347-.802.624-1.118a2.94 2.94 0 0 1 1.027-.747c.407-.182.875-.273 1.404-.273.537 0 1.007.09 1.41.273.403.182.744.43 1.02.747.278.316.486.69.625 1.118.139.43.208.89.208 1.385 0 .494-.07.953-.208 1.378a3.145 3.145 0 0 1-.624 1.111 2.884 2.884 0 0 1-1.02.741c-.404.178-.874.267-1.411.267-.529 0-.997-.09-1.404-.267a2.87 2.87 0 0 1-1.027-.74 3.145 3.145 0 0 1-.624-1.112 4.415 4.415 0 0 1-.208-1.378zm7.826-3.367v6.72h1.105v-3.795c0-.304.041-.583.123-.839.083-.256.206-.479.37-.67.166-.19.371-.337.618-.441.247-.104.54-.156.878-.156.425 0 .758.12 1 .364.244.242.365.572.365.988v4.55h1.105v-4.42a4.16 4.16 0 0 0-.11-.995 1.883 1.883 0 0 0-.384-.773 1.817 1.817 0 0 0-.715-.507c-.295-.122-.663-.182-1.105-.182-.997 0-1.725.407-2.184 1.222h-.026v-1.066h-1.04zm-88.18 9.439v9.282h1.236v-4.251h4.264v-1.04h-4.264v-2.951h4.862v-1.04h-6.097zm7.242 2.56v6.722h1.105v-2.99c0-.434.043-.817.13-1.15.087-.335.225-.618.416-.852.19-.234.442-.412.754-.533.312-.122.689-.182 1.13-.182v-1.17c-.597-.018-1.091.104-1.481.364-.39.26-.72.663-.988 1.209h-.026v-1.417h-1.04zm10.322 6.696c-.19.112-.455.169-.793.169-.286 0-.514-.08-.683-.24-.169-.161-.253-.423-.253-.787a2.644 2.644 0 0 1-1.06.786c-.403.16-.838.24-1.306.24a3.5 3.5 0 0 1-.865-.103 2.01 2.01 0 0 1-.708-.325 1.56 1.56 0 0 1-.475-.579c-.117-.238-.175-.526-.175-.864 0-.382.065-.694.195-.936.13-.243.301-.44.513-.592.213-.152.455-.266.728-.344.273-.078.553-.143.839-.195.303-.061.591-.107.864-.137.273-.03.514-.074.722-.13.208-.056.373-.139.494-.247.121-.108.182-.266.182-.474 0-.243-.046-.438-.137-.585a.936.936 0 0 0-.35-.338 1.427 1.427 0 0 0-.482-.156 3.632 3.632 0 0 0-.526-.04c-.468 0-.858.09-1.17.267-.312.178-.481.514-.507 1.008h-1.105c.017-.416.104-.767.26-1.053.156-.286.364-.518.624-.696.26-.178.557-.305.89-.383a4.703 4.703 0 0 1 1.073-.117c.303 0 .604.021.903.065.3.043.57.132.813.266s.438.323.585.566c.147.242.22.559.22.949v3.458c0 .26.016.45.046.572.03.12.133.182.306.182.095 0 .208-.022.338-.065v.858zm-1.794-3.445c-.139.104-.32.18-.546.227a8.332 8.332 0 0 1-.709.117c-.247.03-.496.065-.747.104a2.748 2.748 0 0 0-.676.189c-.2.086-.362.21-.488.37-.125.16-.188.38-.188.657 0 .182.037.335.11.461a.921.921 0 0 0 .286.306 1.2 1.2 0 0 0 .41.169c.156.034.32.052.494.052.364 0 .676-.05.936-.15.26-.1.472-.225.637-.377.165-.152.286-.316.364-.494a1.25 1.25 0 0 0 .117-.5v-1.131zm2.82-3.25v6.72h1.106v-4.185c0-.13.032-.293.097-.488a1.877 1.877 0 0 1 .871-1.033c.23-.13.505-.195.826-.195.251 0 .457.036.617.11.16.074.289.178.384.312.095.134.162.293.201.475.04.182.059.38.059.598v4.407h1.105v-4.186c0-.52.156-.936.468-1.248.312-.312.74-.468 1.287-.468.269 0 .487.039.656.117a.973.973 0 0 1 .397.318c.095.134.16.293.195.475s.052.377.052.585v4.407h1.105v-4.927c0-.347-.054-.644-.163-.89a1.562 1.562 0 0 0-.455-.605 1.9 1.9 0 0 0-.702-.345 3.519 3.519 0 0 0-.916-.11c-.442 0-.847.1-1.216.299-.368.199-.665.48-.89.845-.139-.416-.377-.711-.715-.884a2.442 2.442 0 0 0-1.131-.26c-.945 0-1.668.38-2.171 1.144h-.026v-.988h-1.04zm15.757 2.717a2.26 2.26 0 0 0-.176-.741 1.894 1.894 0 0 0-.403-.605 1.89 1.89 0 0 0-1.358-.553c-.286 0-.544.05-.774.15-.23.1-.426.236-.591.41a1.96 1.96 0 0 0-.39.604c-.095.23-.152.475-.17.735h3.862zm1.066 1.872c-.147.754-.472 1.321-.975 1.703-.503.38-1.135.572-1.898.572-.537 0-1.003-.087-1.398-.26a2.755 2.755 0 0 1-.994-.728 3.093 3.093 0 0 1-.605-1.118 5.387 5.387 0 0 1-.227-1.417c0-.512.078-.98.234-1.404.156-.425.375-.793.656-1.105a2.979 2.979 0 0 1 2.269-.988c.598 0 1.094.123 1.488.37.395.247.711.561.95.943.238.38.402.797.493 1.248.091.45.128.88.11 1.287h-5.03c-.009.294.026.574.104.838a1.9 1.9 0 0 0 .377.702c.173.204.394.366.663.488.269.12.585.182.949.182.468 0 .851-.109 1.15-.325.3-.217.497-.546.592-.988h1.092zm7.904 2.132 2.145-6.721h-1.144l-1.508 5.499h-.026l-1.404-5.5h-1.21l-1.351 5.5h-.026l-1.521-5.5h-1.222l2.158 6.722h1.196l1.352-5.343h.026l1.365 5.343h1.17zm4.004-3.354c0 .407.054.769.162 1.085.109.316.258.58.449.793.19.212.414.375.67.488.255.112.526.169.812.169.286 0 .557-.057.812-.17.256-.112.48-.275.67-.487.19-.212.34-.477.448-.793.109-.316.163-.678.163-1.085 0-.408-.054-.77-.163-1.086a2.343 2.343 0 0 0-.448-.8 1.91 1.91 0 0 0-.67-.493 1.993 1.993 0 0 0-.812-.17c-.286 0-.557.057-.813.17a1.91 1.91 0 0 0-.67.494c-.19.216-.34.483-.448.8a3.344 3.344 0 0 0-.162 1.085zm-1.17 0c0-.494.07-.956.208-1.385.139-.429.347-.802.624-1.118a2.94 2.94 0 0 1 1.027-.747c.407-.182.875-.273 1.404-.273.537 0 1.007.09 1.41.273.403.182.744.43 1.02.747.278.316.486.69.625 1.118.139.43.208.89.208 1.385 0 .494-.07.953-.208 1.378a3.145 3.145 0 0 1-.624 1.111 2.884 2.884 0 0 1-1.02.741c-.404.178-.874.267-1.411.267-.529 0-.997-.09-1.404-.267a2.87 2.87 0 0 1-1.027-.74 3.145 3.145 0 0 1-.624-1.112 4.415 4.415 0 0 1-.208-1.378zm7.787-3.367v6.72h1.105v-2.99c0-.433.043-.816.13-1.15.087-.334.225-.617.416-.851.19-.234.442-.412.754-.533.312-.122.689-.182 1.13-.182v-1.17c-.597-.018-1.091.104-1.481.364-.39.26-.72.663-.988 1.209h-.026v-1.417h-1.04zm4.433-2.561v9.282h1.105v-2.548l1.04-.962 2.3 3.51h1.405l-2.86-4.277 2.665-2.444H372.7l-3.068 2.938v-5.5h-1.105z" fill="#CCC"/>
            <path d="M145.849 101.074c7.923 0 10.063-2.197 11.162-8.501.751-4.454-.405-5.552-6.883-9.08-3.065-1.677-3.585-2.082-3.238-3.99.347-2.025 1.156-2.14 3.932-2.14 1.967 0 5.148.462 7.287 1.098l1.157-5.32c-2.255-.752-5.725-1.389-8.386-1.389-7.403 0-9.658 1.735-10.641 7.403-.752 4.28-.116 6.42 5.84 9.37 4.165 2.081 4.454 2.717 4.165 4.452-.347 1.967-.983 2.487-4.048 2.487-2.834 0-5.668-.694-7.866-1.445L137 99.28c2.371 1.041 6.246 1.793 8.849 1.793zm32.098-.578-5.9-14.227 10.295-14.517 7.403 1.215-10.295 13.36 5.841 14.169h-7.344zm-16.368 0 6.998-39.674 7.114-.983-7.171 40.657h-6.94zm53.266-20.069-9.312 20.069c-3.238 6.362-5.725 9.427-14.227 12.319l-1.908-5.379c4.858-1.677 6.766-3.47 8.964-6.94h-2.371l-4.049-27.471 6.883-.983 2.66 22.324 6.65-14.98c.637-1.503.81-2.718.81-3.874 0-.926-.115-1.735-.404-2.66l6.766-.984c.347 1.099.52 2.487.52 3.528 0 1.388-.23 3.354-.982 5.031z" fill="#B6D421"/>
            <path d="M218 103.769h4.573l6.86-38.93-4.684.669-6.749 38.26zm37.759-25.88-4.573 25.88h-3.793l.167-3.29a15.24 15.24 0 0 1-10.15 3.848c-4.184 0-5.745-2.287-5.745-5.41 0-.67.111-1.395.223-2.12l1.896-10.764c1.171-6.582 3.625-9.984 12.215-9.984 3.346 0 7.083.837 9.76 1.84zm-7.697 17.737 2.622-14.948c-1.45-.39-3.347-.669-5.243-.669-4.183 0-6.247 1.283-7.195 6.637l-1.729 9.816c-.112.67-.223 1.395-.223 1.897 0 1.283.558 2.008 2.23 2.008 3.403 0 6.415-1.897 9.538-4.741zm28.11-19.577c-2.844 1.227-5.577 2.9-7.752 4.685l.502-4.462-4.072.67-4.74 26.827h4.573l3.179-18.07c2.566-1.897 5.41-3.794 8.478-5.467l-.168-4.183zm17.067 27.72-7.139-13.72 11.545-13.888 4.406 1.115-11.043 12.828 7.25 13.665h-5.019zm-15.617 0 6.75-38.261 4.684-.67-6.86 38.93h-4.574z" fill="#FFF"/>
        </g>
    </g>
</svg>
