<svg width="18" height="18" viewBox="0 0 18 18" xmlns="http://www.w3.org/2000/svg">
    <defs>
        <filter id="wodrqoaqea">
            <feColorMatrix in="SourceGraphic" values="0 0 0 0 0.760087 0 0 0 0 0.779444 0 0 0 0 0.881203 0 0 0 1.000000 0"/>
        </filter>
    </defs>
    <g transform="translate(-16 -93)" filter="url(#wodrqoaqea)" fill-rule="evenodd">
        <path d="m32.033 97.577-6.75-3.938a.563.563 0 0 0-.566 0l-6.75 3.938a.563.563 0 0 0-.28.486v7.874c0 .2.107.386.28.486l6.75 3.938a.563.563 0 0 0 .566 0l6.75-3.938c.173-.1.28-.285.28-.486v-7.874c0-.2-.107-.386-.28-.486zM25 94.777l5.634 3.285L25 101.35l-5.634-3.287L25 94.776zm-6.188 4.265 5.625 3.281v6.573l-5.625-3.281v-6.573zm6.75 9.854v-6.573l5.625-3.281v6.573l-5.625 3.28z" fill="#2d4beb"/>
    </g>
</svg>
